<svg xmlns="http://www.w3.org/2000/svg" viewBox="0 0 260 220" fill="none" role="img" aria-label="登录品牌插画"><style>.paper{fill:#f7f3ea}.card{fill:#fff}.teal{fill:#1b5e63}.teal2{fill:#2f7f85}.amber{fill:#e07b29}.amber2{fill:#f0a35a}.soft{fill:#dcebe9}.ink{fill:#204246}.white{fill:#fff}.muted{fill:#9fbcbd}.belly{fill:#f3e7d4}.ln{stroke:#1b5e63;stroke-width:3;fill:none;stroke-linecap:round;stroke-linejoin:round}.lnw{stroke:#fff;stroke-width:3;fill:none;stroke-linecap:round;stroke-linejoin:round}@media(prefers-color-scheme:dark){.paper{fill:#12212a}.card{fill:#17303a}.teal{fill:#3fa7af}.teal2{fill:#5fc0c6}.soft{fill:#1e3a44}.ink{fill:#e7efe9}.muted{fill:#5f868a}.belly{fill:#24424c}.ln{stroke:#5fc0c6}}</style><rect width="260" height="220" rx="18" class="soft"/><circle cx="200" cy="46" r="12" class="amber2" opacity=".5"/><circle cx="40" cy="180" r="10" class="teal2" opacity=".3"/>
  <rect x="150" y="70" width="70" height="100" rx="10" class="card"/>
  <rect x="160" y="80" width="50" height="80" rx="6" class="soft"/>
  <circle class="amber" cx="200" cy="122" r="5"/>
  <g transform="translate(-8,44) scale(0.62)">
    <ellipse class="teal" cx="90" cy="128" rx="42" ry="34"/><ellipse class="belly" cx="90" cy="132" rx="26" ry="24"/>
    <circle class="teal" cx="90" cy="72" r="38"/><ellipse class="belly" cx="90" cy="86" rx="20" ry="16"/>
    <circle class="ink" cx="80" cy="74" r="4.5"/><circle class="ink" cx="100" cy="74" r="4.5"/>
    <ellipse class="ink" cx="90" cy="84" rx="4" ry="3"/><path class="ln" d="M84 92a8 8 0 0 0 12 0"/>
    <path class="ink" d="M90 30 55 44l35 14 35-14z"/>
  </g>
</svg>
