<svg xmlns="http://www.w3.org/2000/svg" viewBox="0 0 320 120" fill="none" role="img" aria-label="模拟面试头图"><style>.paper{fill:#f7f3ea}.card{fill:#fff}.teal{fill:#1b5e63}.teal2{fill:#2f7f85}.amber{fill:#e07b29}.amber2{fill:#f0a35a}.soft{fill:#dcebe9}.ink{fill:#204246}.white{fill:#fff}.muted{fill:#9fbcbd}.belly{fill:#f3e7d4}.ln{stroke:#1b5e63;stroke-width:3;fill:none;stroke-linecap:round;stroke-linejoin:round}.lnw{stroke:#fff;stroke-width:3;fill:none;stroke-linecap:round;stroke-linejoin:round}@media(prefers-color-scheme:dark){.paper{fill:#12212a}.card{fill:#17303a}.teal{fill:#3fa7af}.teal2{fill:#5fc0c6}.soft{fill:#1e3a44}.ink{fill:#e7efe9}.muted{fill:#5f868a}.belly{fill:#24424c}.ln{stroke:#5fc0c6}}</style><rect width="320" height="120" rx="16" class="soft"/>
    <circle cx="268" cy="60" r="52" class="card" opacity=".55"/>
    <circle cx="300" cy="26" r="10" class="amber2" opacity=".5"/>
    <circle cx="40" cy="98" r="8" class="teal" opacity=".25"/>
    
  <path class="card" d="M232 40h44a8 8 0 0 1 8 8v22a8 8 0 0 1-8 8h-24l-12 10v-10h-8a8 8 0 0 1-8-8V48a8 8 0 0 1 8-8z"/>
  <circle class="teal" cx="248" cy="59" r="3"/><circle class="teal" cx="258" cy="59" r="3"/><circle class="amber" cx="268" cy="59" r="3"/>
  <path class="ln" d="M292 52h10a8 8 0 0 1 8 8v14a8 8 0 0 1-8 8h-4v8l-8-8" stroke-width="3" opacity=".5"/>
</svg>
